# xmcd
#
# Track frame offsets:
# 150
# 17802
# 42174
# 68565
# 86434
# 112678
# 133082
# 153686
# 173930
# 196027
#
# Disc length: 2847 seconds
#
#
# Revision: 0
# Processed by: cddbd v1.5.2PL0 Copyright (c) Steve Scherf et al.
# Submitted via: FreeRIP 2.96 
#
DISCID=770b1d0a
DTITLE=Bella Blues Band - The stocker's
DYEAR=1900
DGENRE=Rock
TTITLE0=The stocker's
TTITLE1=Hey Willie! (Talkin' behind my back)
TTITLE2=Like the sunshine
TTITLE3=Old hog
TTITLE4=Are you bluesy?
TTITLE5=Hold him up
TTITLE6=Ester blues
TTITLE7=Slowly slippin'
TTITLE8=Elmo's shuffle
TTITLE9=Hey mama
EXTD=
EXTT0=
EXTT1=
EXTT2=
EXTT3=
EXTT4=
EXTT5=
EXTT6=
EXTT7=
EXTT8=
EXTT9=
PLAYORDER=
